# xmcd
#
# Track frame offsets:
#	150
#	14473
#	25684
#	35200
#	46012
#	57771
#	69025
#	78175
#	88485
#	97717
#	110631
#	121798
#	132537
#	141674
#	154648
#	165862
#
# Disc length: 2382
#
# Revision: 2
# Processed by: cddbd v1.5.1PL0 Copyright (c) Steve Scherf et al.
# Submitted via: EasyCDDAExtractor 7.0.6.1
# Normalized: r1:DSETVAR1
#
DISCID=c6094c10
DTITLE=Various Artist - The Great Country Superstars-Conway Twitty-Faron Young
DYEAR=1900
DGENRE=Countery
TTITLE0=Conway Twitty - You've Never Been This Far Before
TTITLE1=Conway Twitty - It's Only Make Believe
TTITLE2=Conway Twitty - Ever Since You Went Away
TTITLE3=Conway Twitty - Big Town
TTITLE4=Conway Twitty - Sitting In A Dim Cafe'
TTITLE5=Conway Twitty - Angel's Wings
TTITLE6=Conway Twitty - I Wonder If You Told Her About Me
TTITLE7=Conway Twitty - Let Me Be The Judge
TTITLE8=Faron Young - Hello Walls
TTITLE9=Faron Young - It's Four In The Morning
TTITLE10=Faron Young - Cryin' Time
TTITLE11=Faron Young - Memphis
TTITLE12=Faron Young - Heartache For A keepsake
TTITLE13=Faron Young - Apartment #9
TTITLE14=Faron Young - Goin'Steady
TTITLE15=Faron Young - Three Days
EXTD=
EXTT0=
EXTT1=
EXTT2=
EXTT3=
EXTT4=
EXTT5=
EXTT6=
EXTT7=
EXTT8=
EXTT9=
EXTT10=
EXTT11=
EXTT12=
EXTT13=
EXTT14=
EXTT15=
PLAYORDER=
